<svg  class="recharts-surface" width="650" height="200" viewBox="0 0 650 200" style="width: 100%; height: 100%;">
    <defs>
        <clipPath id="recharts1-clip">
            <rect x="65" y="5" height="160" width="580"></rect>
        </clipPath>
    </defs>

    <g class="recharts-cartesian-grid">
        <g class="recharts-cartesian-grid-horizontal">
        <line  stroke-dasharray="3 3" stroke="#f0f0f0" fill="none" x="65" y="5" width="580" height="160" x1="65" y1="165" x2="645" y2="165"></line>
        <line  stroke-dasharray="3 3" stroke="#f0f0f0" fill="none" x="65" y="5" width="580" height="160" x1="65" y1="125" x2="645" y2="125"></line>
        <line  stroke-dasharray="3 3" stroke="#f0f0f0" fill="none" x="65" y="5" width="580" height="160" x1="65" y1="85" x2="645" y2="85"></line>
        <line  stroke-dasharray="3 3" stroke="#f0f0f0" fill="none" x="65" y="5" width="580" height="160" x1="65" y1="45" x2="645" y2="45"></line>
        <line  stroke-dasharray="3 3" stroke="#f0f0f0" fill="none" x="65" y="5" width="580" height="160" x1="65" y1="5" x2="645" y2="5"></line>
        </g>
        <g class="recharts-cartesian-grid-vertical">
            <line  stroke-dasharray="3 3" stroke="#f0f0f0" fill="none" x="65" y="5" width="580" height="160" x1="109.61538461538461" y1="5" x2="109.61538461538461" y2="165"></line>
            <line  stroke-dasharray="3 3" stroke="#f0f0f0" fill="none" x="65" y="5" width="580" height="160" x1="198.84615384615384" y1="5" x2="198.84615384615384" y2="165"></line>
            <line  stroke-dasharray="3 3" stroke="#f0f0f0" fill="none" x="65" y="5" width="580" height="160" x1="288.0769230769231" y1="5" x2="288.0769230769231" y2="165"></line>
            <line  stroke-dasharray="3 3" stroke="#f0f0f0" fill="none" x="65" y="5" width="580" height="160" x1="377.30769230769226" y1="5" x2="377.30769230769226" y2="165"></line>
            <line  stroke-dasharray="3 3" stroke="#f0f0f0" fill="none" x="65" y="5" width="580" height="160" x1="466.53846153846155" y1="5" x2="466.53846153846155" y2="165"></line>
            <line  stroke-dasharray="3 3" stroke="#f0f0f0" fill="none" x="65" y="5" width="580" height="160" x1="555.7692307692307" y1="5" x2="555.7692307692307" y2="165"></line>
            <line  stroke-dasharray="3 3" stroke="#f0f0f0" fill="none" x="65" y="5" width="580" height="160" x1="645" y1="5" x2="645" y2="165"></line>
            <line  stroke-dasharray="3 3" stroke="#f0f0f0" fill="none" x="65" y="5" width="580" height="160" x1="65" y1="5" x2="65" y2="165"></line>
        </g>
    </g>
    
    <g class="recharts-layer recharts-cartesian-axis recharts-xAxis xAxis"><line orientation="bottom" width="580" height="30"  x="65" y="165" class="recharts-cartesian-axis-line" stroke="#666" fill="none" x1="65" y1="165" x2="645" y2="165"></line><g class="recharts-cartesian-axis-ticks"><g class="recharts-layer recharts-cartesian-axis-tick"><line orientation="bottom" width="580" height="30"  x="65" y="165" class="recharts-cartesian-axis-tick-line" stroke="#666" fill="none" x1="65" y1="171" x2="65" y2="165"></line><text orientation="bottom" width="580" height="30"  stroke="none" font-size="10" x="65" y="173" class="recharts-text recharts-cartesian-axis-tick-value" text-anchor="middle" fill="#9CA3AF"><tspan x="65" dy="0.71em">04-07</tspan></text></g><g class="recharts-layer recharts-cartesian-axis-tick"><line orientation="bottom" width="580" height="30"  x="65" y="165" class="recharts-cartesian-axis-tick-line" stroke="#666" fill="none" x1="109.61538461538461" y1="171" x2="109.61538461538461" y2="165"></line><text orientation="bottom" width="580" height="30"  stroke="none" font-size="10" x="109.61538461538461" y="173" class="recharts-text recharts-cartesian-axis-tick-value" text-anchor="middle" fill="#9CA3AF"><tspan x="109.61538461538461" dy="0.71em">04-08</tspan></text></g><g class="recharts-layer recharts-cartesian-axis-tick"><line orientation="bottom" width="580" height="30"  x="65" y="165" class="recharts-cartesian-axis-tick-line" stroke="#666" fill="none" x1="154.23076923076923" y1="171" x2="154.23076923076923" y2="165"></line><text orientation="bottom" width="580" height="30"  stroke="none" font-size="10" x="154.23076923076923" y="173" class="recharts-text recharts-cartesian-axis-tick-value" text-anchor="middle" fill="#9CA3AF"><tspan x="154.23076923076923" dy="0.71em">04-09</tspan></text></g><g class="recharts-layer recharts-cartesian-axis-tick"><line orientation="bottom" width="580" height="30"  x="65" y="165" class="recharts-cartesian-axis-tick-line" stroke="#666" fill="none" x1="198.84615384615384" y1="171" x2="198.84615384615384" y2="165"></line><text orientation="bottom" width="580" height="30"  stroke="none" font-size="10" x="198.84615384615384" y="173" class="recharts-text recharts-cartesian-axis-tick-value" text-anchor="middle" fill="#9CA3AF"><tspan x="198.84615384615384" dy="0.71em">04-10</tspan></text></g><g class="recharts-layer recharts-cartesian-axis-tick"><line orientation="bottom" width="580" height="30"  x="65" y="165" class="recharts-cartesian-axis-tick-line" stroke="#666" fill="none" x1="243.46153846153845" y1="171" x2="243.46153846153845" y2="165"></line><text orientation="bottom" width="580" height="30"  stroke="none" font-size="10" x="243.46153846153845" y="173" class="recharts-text recharts-cartesian-axis-tick-value" text-anchor="middle" fill="#9CA3AF"><tspan x="243.46153846153845" dy="0.71em">04-11</tspan></text></g><g class="recharts-layer recharts-cartesian-axis-tick"><line orientation="bottom" width="580" height="30"  x="65" y="165" class="recharts-cartesian-axis-tick-line" stroke="#666" fill="none" x1="288.0769230769231" y1="171" x2="288.0769230769231" y2="165"></line><text orientation="bottom" width="580" height="30"  stroke="none" font-size="10" x="288.0769230769231" y="173" class="recharts-text recharts-cartesian-axis-tick-value" text-anchor="middle" fill="#9CA3AF"><tspan x="288.0769230769231" dy="0.71em">04-12</tspan></text></g><g class="recharts-layer recharts-cartesian-axis-tick"><line orientation="bottom" width="580" height="30"  x="65" y="165" class="recharts-cartesian-axis-tick-line" stroke="#666" fill="none" x1="332.6923076923077" y1="171" x2="332.6923076923077" y2="165"></line><text orientation="bottom" width="580" height="30"  stroke="none" font-size="10" x="332.6923076923077" y="173" class="recharts-text recharts-cartesian-axis-tick-value" text-anchor="middle" fill="#9CA3AF"><tspan x="332.6923076923077" dy="0.71em">04-13</tspan></text></g><g class="recharts-layer recharts-cartesian-axis-tick"><line orientation="bottom" width="580" height="30"  x="65" y="165" class="recharts-cartesian-axis-tick-line" stroke="#666" fill="none" x1="377.30769230769226" y1="171" x2="377.30769230769226" y2="165"></line><text orientation="bottom" width="580" height="30"  stroke="none" font-size="10" x="377.30769230769226" y="173" class="recharts-text recharts-cartesian-axis-tick-value" text-anchor="middle" fill="#9CA3AF"><tspan x="377.30769230769226" dy="0.71em">04-14</tspan></text></g><g class="recharts-layer recharts-cartesian-axis-tick"><line orientation="bottom" width="580" height="30"  x="65" y="165" class="recharts-cartesian-axis-tick-line" stroke="#666" fill="none" x1="421.9230769230769" y1="171" x2="421.9230769230769" y2="165"></line><text orientation="bottom" width="580" height="30"  stroke="none" font-size="10" x="421.9230769230769" y="173" class="recharts-text recharts-cartesian-axis-tick-value" text-anchor="middle" fill="#9CA3AF"><tspan x="421.9230769230769" dy="0.71em">04-15</tspan></text></g><g class="recharts-layer recharts-cartesian-axis-tick"><line orientation="bottom" width="580" height="30"  x="65" y="165" class="recharts-cartesian-axis-tick-line" stroke="#666" fill="none" x1="466.53846153846155" y1="171" x2="466.53846153846155" y2="165"></line><text orientation="bottom" width="580" height="30"  stroke="none" font-size="10" x="466.53846153846155" y="173" class="recharts-text recharts-cartesian-axis-tick-value" text-anchor="middle" fill="#9CA3AF"><tspan x="466.53846153846155" dy="0.71em">04-16</tspan></text></g><g class="recharts-layer recharts-cartesian-axis-tick"><line orientation="bottom" width="580" height="30"  x="65" y="165" class="recharts-cartesian-axis-tick-line" stroke="#666" fill="none" x1="511.15384615384613" y1="171" x2="511.15384615384613" y2="165"></line><text orientation="bottom" width="580" height="30"  stroke="none" font-size="10" x="511.15384615384613" y="173" class="recharts-text recharts-cartesian-axis-tick-value" text-anchor="middle" fill="#9CA3AF"><tspan x="511.15384615384613" dy="0.71em">04-17</tspan></text></g><g class="recharts-layer recharts-cartesian-axis-tick"><line orientation="bottom" width="580" height="30"  x="65" y="165" class="recharts-cartesian-axis-tick-line" stroke="#666" fill="none" x1="555.7692307692307" y1="171" x2="555.7692307692307" y2="165"></line><text orientation="bottom" width="580" height="30"  stroke="none" font-size="10" x="555.7692307692307" y="173" class="recharts-text recharts-cartesian-axis-tick-value" text-anchor="middle" fill="#9CA3AF"><tspan x="555.7692307692307" dy="0.71em">04-18</tspan></text></g><g class="recharts-layer recharts-cartesian-axis-tick"><line orientation="bottom" width="580" height="30"  x="65" y="165" class="recharts-cartesian-axis-tick-line" stroke="#666" fill="none" x1="600.3846153846154" y1="171" x2="600.3846153846154" y2="165"></line><text orientation="bottom" width="580" height="30"  stroke="none" font-size="10" x="600.3846153846154" y="173" class="recharts-text recharts-cartesian-axis-tick-value" text-anchor="middle" fill="#9CA3AF"><tspan x="600.3846153846154" dy="0.71em">04-19</tspan></text></g><g class="recharts-layer recharts-cartesian-axis-tick"><line orientation="bottom" width="580" height="30"  x="65" y="165" class="recharts-cartesian-axis-tick-line" stroke="#666" fill="none" x1="645" y1="171" x2="645" y2="165"></line><text orientation="bottom" width="580" height="30"  stroke="none" font-size="10" x="635.6750001907349" y="173" class="recharts-text recharts-cartesian-axis-tick-value" text-anchor="middle" fill="#9CA3AF"><tspan x="635.6750001907349" dy="0.71em">04-20</tspan></text></g></g></g><g class="recharts-layer recharts-cartesian-axis recharts-yAxis yAxis"><line orientation="left" width="60" height="160"  x="5" y="5" class="recharts-cartesian-axis-line" stroke="#666" fill="none" x1="65" y1="5" x2="65" y2="165"></line><g class="recharts-cartesian-axis-ticks"><g class="recharts-layer recharts-cartesian-axis-tick"><line orientation="left" width="60" height="160"  x="5" y="5" class="recharts-cartesian-axis-tick-line" stroke="#666" fill="none" x1="59" y1="165" x2="65" y2="165"></line><text orientation="left" width="60" height="160"  stroke="none" font-size="10" x="57" y="165" class="recharts-text recharts-cartesian-axis-tick-value" text-anchor="end" fill="#9CA3AF"><tspan x="57" dy="0.355em">0</tspan></text></g><g class="recharts-layer recharts-cartesian-axis-tick"><line orientation="left" width="60" height="160"  x="5" y="5" class="recharts-cartesian-axis-tick-line" stroke="#666" fill="none" x1="59" y1="125" x2="65" y2="125"></line><text orientation="left" width="60" height="160"  stroke="none" font-size="10" x="57" y="125" class="recharts-text recharts-cartesian-axis-tick-value" text-anchor="end" fill="#9CA3AF"><tspan x="57" dy="0.355em">20</tspan></text></g><g class="recharts-layer recharts-cartesian-axis-tick"><line orientation="left" width="60" height="160"  x="5" y="5" class="recharts-cartesian-axis-tick-line" stroke="#666" fill="none" x1="59" y1="85" x2="65" y2="85"></line><text orientation="left" width="60" height="160"  stroke="none" font-size="10" x="57" y="85" class="recharts-text recharts-cartesian-axis-tick-value" text-anchor="end" fill="#9CA3AF"><tspan x="57" dy="0.355em">40</tspan></text></g><g class="recharts-layer recharts-cartesian-axis-tick"><line orientation="left" width="60" height="160"  x="5" y="5" class="recharts-cartesian-axis-tick-line" stroke="#666" fill="none" x1="59" y1="45" x2="65" y2="45"></line><text orientation="left" width="60" height="160"  stroke="none" font-size="10" x="57" y="45" class="recharts-text recharts-cartesian-axis-tick-value" text-anchor="end" fill="#9CA3AF"><tspan x="57" dy="0.355em">60</tspan></text></g><g class="recharts-layer recharts-cartesian-axis-tick"><line orientation="left" width="60" height="160"  x="5" y="5" class="recharts-cartesian-axis-tick-line" stroke="#666" fill="none" x1="59" y1="5" x2="65" y2="5"></line><text orientation="left" width="60" height="160"  stroke="none" font-size="10" x="57" y="7.5" class="recharts-text recharts-cartesian-axis-tick-value" text-anchor="end" fill="#9CA3AF"><tspan x="57" dy="0.355em">80</tspan></text></g></g></g><g class="recharts-layer recharts-reference-line"><line data-component-name="ReferenceLine" y="70" stroke="#F59E0B" stroke-dasharray="3 3" fill="none" fill-opacity="1" stroke-width="1" x1="65" y1="25" x2="645" y2="25" class="recharts-reference-line-line"></line><text offset="5" font-size="10" x="355" y="25" class="recharts-text recharts-label" text-anchor="middle" fill="#F59E0B"><tspan x="355" dy="0.355em">Payout threshold</tspan></text></g><g class="recharts-layer recharts-line"><path data-component-name="Line" stroke="#2563EB" stroke-width="2" width="580" height="160" fill="none" class="recharts-curve recharts-line-curve" d="M65,83C79.872,58,94.744,33,109.615,33C124.487,33,139.359,47.667,154.231,59C169.103,70.333,183.974,94.333,198.846,101C213.718,107.667,228.59,111,243.462,111C258.333,111,273.205,49,288.077,49C302.949,49,317.821,127,332.692,127C347.564,127,362.436,91,377.308,91C392.179,91,407.051,127,421.923,127C436.795,127,451.667,57,466.538,57C481.41,57,496.282,79.333,511.154,91C526.026,102.667,540.897,127,555.769,127C570.641,127,585.513,59,600.385,59C615.256,59,630.128,63,645,67"></path><g class="recharts-layer"></g><g class="recharts-layer recharts-line-dots"><circle data-component-name="circle cx="65" cy="83.00000000000001" r="4" fill="#F59E0B" stroke="#F59E0B"></circle><circle data-component-name="circle cx="109.61538461538461" cy="33.00000000000001" r="4" fill="#F59E0B" stroke="#F59E0B"></circle><circle data-component-name="circle cx="154.23076923076923" cy="59.00000000000001" r="4" fill="#F59E0B" stroke="#F59E0B"></circle><circle data-component-name="circle cx="198.84615384615384" cy="101" r="4" fill="#F59E0B" stroke="#F59E0B"></circle><circle data-component-name="circle cx="288.0769230769231" cy="49.00000000000001" r="4" fill="#F59E0B" stroke="#F59E0B"></circle><circle data-component-name="circle cx="377.30769230769226" cy="91" r="4" fill="#F59E0B" stroke="#F59E0B"></circle><circle data-component-name="circle cx="466.53846153846155" cy="56.99999999999999" r="4" fill="#F59E0B" stroke="#F59E0B"></circle><circle data-component-name="circle cx="511.15384615384613" cy="91" r="4" fill="#F59E0B" stroke="#F59E0B"></circle><circle data-component-name="circle" cx="645" cy="67" r="4" fill="#F59E0B" stroke="#F59E0B"></circle></g></g></svg>